<?xml version="1.0" encoding="iso-8859-1"?>
<!-- Generator: Adobe Illustrator 22.1.0, SVG Export Plug-In . SVG Version: 6.00 Build 0)  -->
<svg version="1.1" id="Layer_1" xmlns="http://www.w3.org/2000/svg" xmlns:xlink="http://www.w3.org/1999/xlink" x="0px" y="0px"
	 viewBox="0 0 1728 1728" style="enable-background:new 0 0 1728 1728;" xml:space="preserve">
<linearGradient id="SVGID_1_" gradientUnits="userSpaceOnUse" x1="896.5861" y1="1408.9395" x2="896.5861" y2="630.3118" gradientTransform="matrix(0.7071 0 0 0.7071 211.0038 -26.6935)">
	<stop  offset="0" style="stop-color:#F0C21A"/>
	<stop  offset="0.3314" style="stop-color:#93C94B"/>
	<stop  offset="0.4859" style="stop-color:#70C05A"/>
	<stop  offset="0.7506" style="stop-color:#12B259"/>
	<stop  offset="0.903" style="stop-color:#22AD69"/>
	<stop  offset="1" style="stop-color:#22AD69"/>
</linearGradient>
<path style="fill:url(#SVGID_1_);" d="M453.444,668.314l365.891-242.388c14.428-9.234,36.935-9.234,51.363,0l365.891,242.388
	c21.93,14.428,21.93,38.09,0,52.517l-49.055,32.318c-72.139-113.692-199.104-188.717-342.806-188.717
	c-144.279,0-270.667,75.602-342.806,188.716l-49.055-32.318C431.514,706.403,431.514,682.164,453.444,668.314z M844.728,665.428
	c-109.075,0-204.299,57.711-258.547,143.124l84.259,55.98c35.781-58.866,99.841-98.109,173.712-98.109
	c73.294,0,137.93,39.244,173.712,98.109l84.259-55.98C1049.604,723.139,953.803,665.428,844.728,665.428z M844.728,867.995
	c-38.09,0-71.562,21.353-89.453,52.517l56.557,36.935c9.234,7.503,20.199,12.119,32.896,12.119s24.239-4.617,32.896-12.119
	l56.557-36.935C917.444,889.926,883.394,867.995,844.728,867.995z"/>
<path style="fill:#FFFFFF;" d="M326.084,1181.365l79.2,113.765h-55.625l-59.717-87.995c0,28.912,0,59.082,0,87.995H245v-224.703
	h44.941c0,29.854,0,59.713,0,89.568l56.571-89.568H399L326.084,1181.365z M483.747,1070.426h-44.942v224.703h116.28v-44.942h-71.339
	V1070.426z M688.365,1062.254l94.59,232.876H732.36l-9.115-24.197h-74.485l-8.799,24.197h-50.91l94.598-232.876H688.365z
	 M706.586,1228.817l-20.42-58.451l-21.06,58.451H706.586z M846.239,1195.19l-46.195-124.764H749.45l94.59,232.876h4.715
	l94.598-232.876h-50.91L846.239,1195.19z M977.103,1295.13h44.942v-224.703h-44.942V1295.13z M1202.135,1070.426l-45.888,77.311
	l-45.879-77.311h-54.687l78.254,123.51v101.193h44.626v-101.193l78.569-123.51H1202.135z M1490,1178.689
	c0,64.306-52.13,116.436-116.436,116.436c-64.306,0-116.436-52.13-116.436-116.436c0-64.306,52.13-116.436,116.436-116.436
	C1437.87,1062.254,1490,1114.384,1490,1178.689z M1445.99,1178.689c0-40-32.426-72.426-72.425-72.426s-72.426,32.426-72.426,72.426
	s32.426,72.425,72.426,72.425S1445.99,1218.689,1445.99,1178.689z"/>
</svg>
