<?xml version="1.0" encoding="utf-8"?>
<!-- Generator: Adobe Illustrator 16.0.0, SVG Export Plug-In . SVG Version: 6.00 Build 0)  -->
<!DOCTYPE svg PUBLIC "-//W3C//DTD SVG 1.1//EN" "http://www.w3.org/Graphics/SVG/1.1/DTD/svg11.dtd">
<svg version="1.1" id="Layer_1" xmlns="http://www.w3.org/2000/svg" xmlns:xlink="http://www.w3.org/1999/xlink" x="0px" y="0px"
	 width="1500px" height="1256px" viewBox="0 0 1500 1256" enable-background="new 0 0 1500 1256" xml:space="preserve">
<g>
	<g>
		<g>
			<path fill="#7D888E" d="M30.011,1120.623c7.453-12.067,20.851-19.162,35.022-18.541c14.212-0.223,27.271,7.809,33.474,20.603
				c1.858-1.411,3.431-3.159,4.638-5.153c12.372-14.973,33.132-20.008,50.987-12.358c12.346,5.088,20.866,16.583,22.148,29.87
				c0.73,4.428,1.077,8.906,1.028,13.392c0,19.058,0,38.112,0,57.168c0,1.547,0,2.576,0,4.122c0,1.422-1.152,2.573-2.576,2.573
				h-0.515c-4.12,0-9.271,1.547-12.359-1.029c-3.09-2.576-1.032-7.725-1.032-11.329c0-16.997,0-33.993,0-50.476
				c0.133-4.515-0.389-9.023-1.544-13.389c-3.303-13.048-16.096-21.353-29.358-19.058c-15.964,2.062-26.265,13.906-26.265,31.417
				c0,17.512,0,37.083,0,55.623c0,9.272,1.543,8.24-7.725,8.24c-9.272,0-8.243,1.547-8.243-8.24c0-17.511,0-35.192,0-53.047
				c-0.21-4.356-0.899-8.673-2.058-12.877c-1.838-11.392-11.167-20.087-22.663-21.116c-11.427-1.719-22.78,3.553-28.841,13.391
				c-3.854,6.359-5.822,13.684-5.667,21.116c0,18.026,0,35.538,0,53.563c0,1.547,0,2.576,0,4.119c0,1.548-1.029,3.092-3.087,3.092
				h-9.272c-2.576,0-3.605-0.515-3.605-3.092c0-2.572,0-2.057,0-3.604c0-31.589,0-63.348,0-95.281c0-1.029,0-2.057,0-3.604
				c0-1.544,1.029-3.091,3.09-3.091h9.787c2.572,0,3.605,1.033,3.087,3.606c-0.515,2.575,0,8.242,0,12.361L30.011,1120.623z"/>
			<path fill="#7D888E" d="M478.604,1105.173l-15.968,16.482l-25.236,26.265c-3.09,3.091-3.09,3.091-0.514,6.182l40.686,53.562
				c1.321,1.178,2.068,2.868,2.061,4.635h-16.482c-2.057,0-3.09-2.058-4.119-3.605l-27.812-36.565l-5.664-7.726
				c-1.032-1.546-2.576-1.546-3.608,0l-18.541,18.541c-1.129,1.268-1.689,2.945-1.543,4.634c0,6.696,0,13.906,0,20.603
				c0,6.694,0,4.119-4.119,4.119h-8.758c-3.091,0-3.605-1.029-3.605-3.605c0-2.572,0-2.059,0-3.09c0-46.353,0-92.876,0-139.572
				c0-1.03,0-2.061,0-3.09c0-1.032,0.514-4.12,3.605-3.604h9.271c3.091,0,3.605,1.029,3.605,3.604c0,2.573,0,2.573,0,4.119
				c0,29.871,0,59.916,0,90.132v6.179c2.576,0,3.091-2.059,4.635-3.091l49.442-52.015c2.54-2.998,6.397-4.541,10.301-4.124h12.363
				V1105.173z"/>
			<path fill="#7D888E" d="M1344.881,1195.302c-1.76,1.151-3.181,2.754-4.119,4.638c-15.449,20.087-46.353,18.024-60.257,5.663
				c-6.693-5.913-11.224-13.887-12.879-22.66c-0.753-3.902-1.096-7.873-1.027-11.845c0-20.601,0-41.203,0-61.29
				c0-5.148,0-5.664,5.148-5.148c5.15,0.514,7.729-1.548,9.785,0.514c2.062,2.06,1.032,6.696,1.032,9.786c0,16.994,0,33.99,0,50.472
				c-0.035,5.052,0.658,10.081,2.059,14.936c3.243,10.822,12.929,18.445,24.208,19.058c22.144,2.059,36.05-14.42,36.05-33.993
				c0-19.572,0-37.598,0-56.139c0-5.148,0-5.148,5.153-5.148h7.724c2.062,0,2.577,1.029,2.577,2.573c0,1.548,0,2.062,0,3.604
				c0,31.934,0,63.867,0,95.799c0,6.693,0.514,6.178-6.696,6.178h-6.181c-2.577,0-3.091-1.029-3.091-3.605
				C1344.367,1206.12,1344.881,1200.453,1344.881,1195.302z"/>
			<path fill="#7D888E" d="M722.726,1120.623c2.062-0.515,2.576-2.576,3.605-4.119c16.481-20.089,49.956-18.541,63.862-2.062
				c6.836,8.039,10.499,18.294,10.301,28.843c0,19.913,0,39.829,0,59.743c0,2.059,0,3.605,0,5.664c0,2.062-1.029,3.605-3.604,3.091
				c-2.573-0.515-8.754,1.547-11.845-0.515c-3.091-2.063-1.029-7.725-1.029-11.329c0-16.997,0-33.993,0-50.476
				c0.042-3.461-0.305-6.915-1.032-10.298c-3.605-16.997-16.479-23.691-31.417-22.662c-15.881,0.775-28.579,13.476-29.356,29.354
				c-1.029,8.758-0.514,16.997-0.514,25.755c0,8.753,0,24.205,0,36.565c0,3.09-1.029,4.119-4.12,4.119h-8.756
				c-2.573,0-3.091-1.029-3.091-3.605c0-2.572,0-4.119,0-6.178c0-30.217,0-60.605,0-91.161c0-1.546,0-3.089,0-4.637
				c0-1.42,1.156-2.573,2.576-2.573h0.516c12.876-1.032,12.876-1.032,12.876,11.331c0,1.543,0,2.575,0,4.119L722.726,1120.623z"/>
			<path fill="#7D888E" d="M1046.682,1214.873c-30.718,0.57-56.076-23.865-56.646-54.58c-0.006-0.176-0.006-0.351-0.009-0.529
				c-0.612-24.853,15.054-47.202,38.627-55.104c19.899-6.566,41.799-1.389,56.655,13.388c3.089,3.09,3.089,3.09,0,6.694
				c-3.094,3.607-4.637,6.183-7.213,6.696c-2.572,0.516-5.149-3.604-7.726-5.662c-16.995-13.392-38.111-12.362-52.018,2.058
				c-16.797,18.175-15.683,46.523,2.491,63.32c0.197,0.184,0.397,0.365,0.599,0.543c13.534,11.269,32.926,12.109,47.385,2.061
				l5.148-3.604c2.062-1.544,3.091-4.119,5.152-4.119c2.059,0,4.119,3.091,6.181,4.634l1.544,1.547c2.577,1.543,2.577,3.088,0,5.148
				C1076.572,1208.66,1061.957,1215.032,1046.682,1214.873z"/>
			<path fill="#7D888E" d="M650.623,1196.334c0.586,2.003,0.76,4.105,0.515,6.181c0,7.726,0,7.726-7.726,9.783
				c-7.21,2.116-14.848,2.295-22.148,0.516c-10.372-2.122-18.242-10.612-19.568-21.117c-0.677-3.563-1.023-7.185-1.032-10.816
				c0-18.024,0-36.565,0-54.591c0-1.029,0-2.062,0-3.091s0-5.151-4.634-5.151h-6.182c-3.087,0.517-4.119-1.029-3.605-4.12
				c0.518-3.09,0-3.605,0-5.662c0-2.063,0-4.639,4.637-4.639h4.634c5.667,0,5.667,0,5.667-6.178c0-6.182,0-14.424,0-21.634
				s0-4.634,4.634-4.634s8.239-1.544,10.815,1.029c2.577,2.575,0.516,6.694,1.029,10.299c0.514,3.607,0,10.817,0,15.969
				c0,5.148,0,4.634,4.637,4.634H646.5c5.151,0,5.151,0,5.151,5.153c0,5.148,1.543,9.267-9.272,9.267h-21.116
				c-2.576,0-3.605,1.032-3.605,3.605c0,20.603,0,41.204,0,61.291c-0.86,7.916,4.86,15.032,12.78,15.893
				c0.714,0.078,1.437,0.104,2.158,0.071c4.728,0.34,9.475-0.365,13.903-2.058C648.047,1196.848,649.076,1196.334,650.623,1196.334z
				"/>
			<path fill="#7D888E" d="M1103.334,1135.559c0-23.003,0-46.01,0-69.013c0-1.546,0-3.091,0-4.635c0-1.546,1.029-2.575,3.088-2.575
				h10.818c1.422,0,2.572,1.151,2.572,2.575c0,1.544,0,2.573,0,4.119c0,46.354,0,92.877,0,139.572c0,6.695,0.519,6.181-6.181,6.181
				c-6.691,0-7.725,1.547-9.782-1.029c-2.062-2.575-0.516-6.181-0.516-9.271C1103.334,1179.853,1103.334,1157.707,1103.334,1135.559
				z"/>
			<path fill="#7D888E" d="M326.667,1129.381l5.667-8.244c7.394-10.497,19.119-17.119,31.931-18.025
				c5.151-0.514,5.151,0,5.151,5.153c0.628,3.598,0.455,7.29-0.517,10.814c-1.543,3.09-6.693,1.544-9.783,2.058
				c-17.511,4.123-26.782,14.938-31.417,31.417c-1.504,6.063-2.197,12.298-2.062,18.544c0,12.359,0,24.204,0,36.565
				c0,12.363,0,5.15-4.634,4.635c-4.638-0.515-8.243,1.547-10.815-1.029c-2.577-2.576-0.515-6.695-0.515-10.3
				c0-29.528,0-59.06,0-88.585c0-1.03,0-2.063,0-3.605c0-1.546,0-4.635,4.635-4.119c4.634,0.514,7.725-1.548,10.3,0.514
				c2.576,2.06,1.029,6.696,1.029,10.302c0,3.604,0,9.267,0,13.906H326.667z"/>
			<path fill="#7D888E" d="M686.16,1158.221c0,16.481,0,32.79,0,48.929c0,5.148,0,5.148-5.153,5.148
				c-5.148,0-8.239,1.547-10.301-0.515c-2.057-2.059-1.029-7.21-1.029-10.814c0-29.355,0-58.714,0-88.071c0-1.544,0-2.576,0-4.119
				c0-1.546,0-4.119,4.121-4.119h8.758c3.089,0,4.119,1.028,4.119,4.119c0,10.815,0,22.146,0,32.961
				C686.674,1152.554,686.16,1152.554,686.16,1158.221z"/>
			<path fill="#7D888E" d="M677.402,1080.966c-9.783,0-9.269,1.543-9.269-9.271c0-10.815-1.033-8.754,9.269-8.754
				s6.696-1.032,8.758,0.515c2.057,1.545,1.028,6.182,1.028,9.271c0,3.088,1.029,8.239-8.239,8.239H677.402z"/>
			<path fill="#7D888E" d="M1475.701,1059.85c-3.091,0-4.12,1.029-4.12,4.12c0,3.09,0,2.061,0,3.605c0,16.825,0,33.478,0,49.956
				c0.191,1.907,0.018,3.83-0.518,5.667c-2.575-0.514-3.091-2.575-4.12-4.119c-18.118-20.427-49.368-22.298-69.798-4.178
				c-2.789,2.476-5.291,5.26-7.455,8.297c-14.043,20.46-14.848,47.232-2.059,68.498c11.698,18.146,33.64,26.842,54.591,21.634
				c9.763-2.768,18.414-8.534,24.721-16.482c1.034-1.546,1.545-3.091,3.606-3.604c2.061-0.514,0.514,3.091,0.514,4.635
				c0,1.546,0,7.725,0,11.328c0,3.607,1.033,3.607,3.092,3.607h11.848v-153.478L1475.701,1059.85z M1454.068,1193.757
				c-17.068,11.314-40.082,6.647-51.395-10.423c-1.777-2.68-3.2-5.582-4.228-8.632c-3.624-10.307-3.805-21.514-0.514-31.931
				c3.99-14.857,17.084-25.457,32.445-26.268c15.127-1.302,29.55,6.62,36.565,20.087
				C1477.922,1156.131,1472.362,1180.806,1454.068,1193.757z"/>
			<path fill="#7D888E" d="M925.648,1114.442c0-2.059,0-4.635,0-6.693c0-2.062-0.516-3.605-3.091-3.605h-8.754
				c-4.123,0-4.123,0-4.123,4.635s0,8.753,0,12.874h-1.029c-17.534-22.755-50.2-26.986-72.953-9.45
				c-2.479,1.91-4.78,4.039-6.878,6.361c-16.935,20.034-16.498,49.492,1.032,69.013c19.771,20.454,52.375,21.003,72.824,1.236
				c2.191-2.12,4.191-4.43,5.975-6.899l1.029,1.029c0,4.12,0,8.754,0,12.876c-1.029,21.632-13.388,32.961-31.932,35.022
				c-14.087,1.528-28.304-1.354-40.686-8.242c-3.09-1.543-5.151-5.664-8.757-3.605c-3.604,2.063-3.604,5.667-5.664,8.757
				c-2.062,3.091-1.032,3.091,1.029,4.12l4.119,2.576c17.577,10.197,38.256,13.673,58.2,9.782
				c19.302-2.608,34.705-17.388,38.109-36.565c1.075-4.906,1.592-9.915,1.548-14.934
				C925.648,1166.974,925.648,1140.71,925.648,1114.442z M900.927,1176.761c-9.747,10.706-24.553,15.246-38.627,11.848
				c-17.176-3.287-29.408-18.576-28.842-36.055c-0.514-23.173,19.57-39.141,43.777-35.536c8.85,1.191,17.028,5.368,23.176,11.848
				c12.625,13.47,12.625,34.427,0,47.896H900.927z"/>
			<path fill="#7D888E" d="M500.233,1164.401h76.741c4.633,0,4.633,0,4.633-4.638c0.14-5.532-0.381-11.067-1.546-16.479
				c-4.217-26.979-29.507-45.429-56.488-41.209c-13.761,2.152-25.974,10.01-33.641,21.638
				c-8.401,12.188-12.061,27.021-10.301,41.717c1.787,29.243,26.939,51.501,56.182,49.719c1.019-0.063,2.035-0.156,3.048-0.276
				c15.104-1.047,29.093-8.322,38.627-20.087l-3.091-3.09c-2.062-1.544-4.119-4.634-6.694-5.149
				c-2.577-0.514-4.121,3.091-6.182,4.635c-21.63,17.511-58.711,12.362-65.406-22.66
				C496.114,1164.401,496.114,1164.401,500.233,1164.401z M497.143,1146.376c1.399-7.045,4.593-13.607,9.271-19.057
				c11.709-13.566,32.197-15.072,45.763-3.36c3.538,3.053,6.372,6.836,8.313,11.084c2.017,4.243,3.405,8.75,4.121,13.392
				c0.514,3.605,0.514,3.605-3.091,3.605h-59.744c-6.181,0-6.181,0-4.634-6.182V1146.376z"/>
			<path fill="#7D888E" d="M286.495,1180.366c0-12.874,0-25.75,0-38.627c0.359-19.631-14.449-36.233-33.993-38.113
				c-14.243-2.101-28.786-0.504-42.232,4.639c-9.268,3.089-9.268,3.089-5.663,12.358c3.605,9.271,1.543,4.637,6.178,2.575
				c10.695-4.646,22.368-6.595,33.993-5.667c4.884,0.324,9.634,1.732,13.906,4.121c9.68,5.62,14.501,16.94,11.845,27.812
				c-1.563,0.227-3.159,0.048-4.635-0.515c-12.135-2.884-24.663-3.754-37.08-2.573c-7.439,0.689-14.641,2.971-21.116,6.693
				c-15.352,9.248-20.297,29.189-11.048,44.539c2.408,3.994,5.647,7.424,9.501,10.055c10.893,6.803,23.971,9.197,36.569,6.696
				c10.99-2.016,21.074-7.417,28.841-15.452c0,3.607,0,6.695,0,10.299c0,3.607,1.029,4.124,4.12,3.607h7.725
				c3.09,0,4.12-1.03,3.605-4.121C286.495,1205.603,286.495,1189.638,286.495,1180.366z M271.046,1175.218
				c-0.792,8.11-5.375,15.371-12.362,19.568c-11.333,7.948-26.02,9.318-38.627,3.605c-7.679-2.873-12.66-10.343-12.359-18.539
				c-0.064-8.283,5.09-15.71,12.874-18.541h46.352c4.123,1.029,4.123,1.029,4.123,5.662
				C271.214,1169.719,271.214,1172.473,271.046,1175.218z"/>
			<path fill="#7D888E" d="M1194.492,1102.082c-31.003,0.008-56.133,25.144-56.128,56.149c0.006,31.003,25.145,56.134,56.146,56.128
				c30.603-0.006,55.56-24.515,56.123-55.109c0.854-30.709-23.346-56.293-54.055-57.148
				C1195.884,1102.082,1195.187,1102.076,1194.492,1102.082z M1212.521,1195.818c-17,9.088-38.101,4.253-49.447-11.332
				c-11.028-15.774-11.028-36.757,0-52.533c13.062-17.228,37.611-20.608,54.842-7.55c5.262,3.989,9.43,9.245,12.115,15.277
				c2.901,6.103,4.315,12.813,4.12,19.569c0.382,15.466-8.265,29.74-22.146,36.568H1212.521z"/>
		</g>
	</g>
	<path fill="#139CD8" d="M432.25,12.278c51.31,6.072,100.048,25.817,141.117,57.169c17.486,13.232,33.385,28.441,47.382,45.323
		l6.694,7.725l20.603-18.542C704.185,57.601,768.563,37,840.668,44.726c83.433,8.755,147.813,50.988,193.652,121.032l2.058,3.089
		c5.152,8.755,5.152,8.755,14.938,4.636c166.868-68.499,359.491,19.057,418.205,190.046
		c54.077,157.085-17.511,328.59-165.324,397.604c-42.547,19.916-88.992,30.124-135.969,29.871
		c-17.275,0.064-34.518-1.488-51.504-4.634c-8.755-1.548-8.755-1.548-13.39,5.663c-35.539,56.142-85.497,92.193-150.389,106.098
		c-46.611,10.257-95.264,5.57-139.059-13.391l-1.545-1.029c-9.271-4.119-7.727-4.637-11.848,4.119
		c-8.829,19.369-20.077,37.54-33.475,54.078c-42.983,54.322-105.792,89.339-174.596,97.342l-13.393,1.543
		c-10.611,1-21.275,1.343-31.931,1.033h-8.239c-57.168-2.063-106.61-23.692-150.389-59.23c-31.967-26.103-57.22-59.48-73.649-97.341
		c-6.182-13.906-6.182-13.391-21.631-11.329c-78.284,9.785-146.785-12.877-203.952-66.954
		c-40.413-37.874-66.75-88.362-74.678-143.18c-0.453-4.275-0.625-8.575-0.518-12.877c-1.143-17.145-1.143-34.351,0-51.5
		c1.952-32.736,11.281-64.605,27.297-93.223c19.375-37.125,47.918-68.684,82.921-91.675c7.21-4.634,7.725-9.784,5.148-16.996
		c-12.401-33.085-18.514-68.192-18.025-103.521c-0.188-64.462,21.818-127.022,62.319-177.17
		c40.676-51.71,98.002-87.743,162.234-101.976c10.207-1.898,20.53-3.102,30.902-3.605h11.844c2.576-0.516,5.667,1.029,8.243-1.031
		h25.75c2.577,2.06,5.664,0.515,8.239,1.031h4.121C427.099,11.249,429.675,10.733,432.25,12.278z"/>
	<path fill="#FFFFFF" d="M846.332,427.394c7.874,0.775,15.792,0.948,23.691,0.514c4.635,0,5.667,1.546,4.635,6.179
		c-4.119,20.602-1.544,16.997-19.568,17.511c-18.026,0.517-13.393-3.088-16.483,13.906c-6.694,36.053-12.358,72.105-19.568,108.158
		c-1.354,5.997-3.25,11.858-5.667,17.51c-9.271,22.147-25.751,32.446-49.442,30.387c-4.9-0.225-9.747-1.091-14.42-2.575
		c-3.605-1.544-5.667-3.089-3.605-7.21v-2.062c1.054-4.364,2.792-8.535,5.148-12.36c3.605-4.121,8.242,0,12.877,0
		c12.874,0,18.541-3.09,23.691-14.936c4.561-12.655,7.671-25.786,9.27-39.141c5.152-27.813,9.785-55.109,14.936-82.921l1.032-5.666
		c0.283-1.683-0.852-3.277-2.534-3.562c-0.182-0.031-0.37-0.046-0.557-0.043H796.89c-3.605,0-5.664-2.06-4.119-5.665v-1.031
		c2.061-15.965,2.061-16.48,17.51-16.48c5.149,0,7.726-1.545,8.239-7.21c0.702-5.474,2.084-10.837,4.123-15.965
		c8.24-24.036,25.235-35.71,50.986-35.022h2.062c23.175,3.088,19.055,2.059,12.359,21.116c-1.029,3.605-3.604,4.119-6.695,3.605
		c-4.389-0.992-8.899-1.338-13.388-1.031c-6.716,0.541-12.709,4.407-15.968,10.301C847.732,410.834,845.76,419.102,846.332,427.394z
		"/>
	<path fill="#FFFFFF" d="M455.425,509.283c0,12.877,0,26.266,0,39.143c0,4.635-1.029,7.21-6.182,8.24
		c-22.144,4.636-44.29,9.27-66.954,5.665l-8.753-2.06c-14.936-4.119-25.236-13.389-27.812-28.326
		c-2.576-14.936,0-32.447,14.42-43.777c10.971-7.814,24.13-11.96,37.6-11.847c7.924-0.201,15.856,0.318,23.689,1.546
		c5.667,1.031,6.181,0,6.181-5.665c1.169-10.745-6.598-20.403-17.343-21.569c-0.226-0.023-0.456-0.044-0.682-0.061
		c-14.664-2.399-29.712-0.43-43.262,5.664c-7.726,3.091-7.726,3.091-10.301-4.119l-1.547-3.605
		c-4.12-10.816-3.605-11.332,7.211-15.451c18.036-6.941,37.604-8.897,56.652-5.666c23.178,4.119,35.54,19.055,36.055,44.292
		c0.514,12.875,0,25.752,0,38.112L455.425,509.283z"/>
	<path fill="#FFFFFF" d="M1292.349,501.557h-37.595c-6.696,0-6.696,0.516-6.183,6.696c0.291,15.134,11.334,27.907,26.267,30.386
		c13.94,2.576,28.31,1.511,41.717-3.091c8.242-2.574,8.242-2.574,10.815,5.665c2.576,8.241,5.152,14.937-9.268,18.542
		c-17.124,4.805-35.162,5.335-52.533,1.545c-23.693-5.665-39.144-19.571-44.81-43.777c-4.313-17.938-3.238-36.75,3.091-54.08
		c14.422-40.172,59.743-45.322,85.494-31.416c8.712,4.563,15.748,11.778,20.087,20.601c6.38,13.287,8.876,28.104,7.21,42.748
		c-0.514,4.636-2.061,6.181-6.695,6.181H1292.349z"/>
	<path fill="#FFFFFF" d="M607.873,501.557h-37.081c-4.634,0-6.181,1.029-5.667,6.179c2.062,18.028,10.815,27.813,28.844,30.903
		c13.311,2.123,26.945,0.882,39.657-3.605c7.724-2.577,7.724-2.577,10.815,4.636l1.029,3.605c3.605,10.815,4.119,10.815-6.696,14.42
		c-18.766,6.326-38.944,7.22-58.196,2.574c-21.838-4.355-38.909-21.425-43.265-43.262c-4.623-18.254-3.544-37.487,3.09-55.109
		c13.906-37.081,64.381-50.473,93.736-24.721c6.65,5.794,11.627,13.263,14.42,21.633c3.783,10.906,5.188,22.496,4.121,33.991
		c-0.514,8.241-1.029,8.241-8.753,8.241L607.873,501.557z"/>
	<path fill="#FFFFFF" d="M877.749,494.347c-0.544-9.209,0.502-18.444,3.091-27.297c7.725-27.297,31.416-44.292,62.833-42.232
		c31.418,2.059,51.505,22.661,55.625,54.592c1.815,12.692,1.291,25.609-1.548,38.113c-7.724,32.962-34.504,48.927-66.95,45.322
		c-32.448-3.605-50.475-24.721-53.564-57.684C877.749,501.557,877.749,497.952,877.749,494.347z"/>
	<path fill="#FFFFFF" d="M721.696,563.875c-16.457,0.211-32.656-4.061-46.867-12.36c-4.637-2.576-6.181-5.666-3.605-10.301v-1.029
		c2.059-4.121,1.543-10.815,6.178-12.877c4.637-2.06,7.726,3.606,11.848,5.667c10.232,5.175,21.495,7.99,32.96,8.239
		c4.612,0.336,9.233-0.552,13.392-2.574c5.184-2.211,8.605-7.241,8.753-12.875c0.148-5.45-3.152-10.402-8.239-12.361
		c-5.602-2.803-11.469-5.044-17.511-6.696c-8.465-2.24-16.734-5.167-24.721-8.755c-12.363-6.181-20.087-15.451-20.601-29.871
		c-1.279-14.319,5.717-28.112,18.025-35.539c10.252-6.05,22.135-8.75,33.993-7.724c13.094,0.507,25.918,3.844,37.598,9.786
		c4.12,2.061,6.178,4.635,3.605,9.271l-1.033,2.574c-4.118,11.846-4.118,11.846-16.479,7.211
		c-9.508-3.773-19.647-5.695-29.873-5.667c-4.871-0.085-9.615,1.557-13.392,4.636c-5.261,3.887-6.375,11.305-2.488,16.566
		c0.703,0.951,1.54,1.788,2.488,2.491c3.026,2.551,6.528,4.477,10.301,5.664l21.116,7.211c5.475,2.048,10.809,4.458,15.967,7.21
		c11.881,5.379,19.388,17.349,19.055,30.388c0.647,14.439-6.932,28.002-19.569,35.022
		C743.123,562.247,732.418,564.565,721.696,563.875z"/>
	<path fill="#FFFFFF" d="M278.771,563.875c-16.116,0.103-31.957-4.169-45.837-12.36c-6.181-3.605-6.695-4.121-4.123-10.816
		c2.576-6.695,1.547-10.815,5.667-12.875c4.12-2.059,8.757,3.091,12.877,5.151c9.925,5.013,20.818,7.823,31.931,8.239
		c6.039,0.547,12.071-1.099,16.997-4.634c6.168-4.081,7.86-12.388,3.78-18.557c-1.107-1.672-2.573-3.076-4.295-4.104
		c-5.311-3.171-11.029-5.597-16.997-7.211c-7.501-2.021-14.893-4.428-22.148-7.21c-19.055-8.241-26.265-19.056-24.721-37.598
		c1.155-16.979,13.288-31.203,29.873-35.022c20.12-5.061,41.404-2.493,59.744,7.21c4.12,2.062,5.149,4.636,3.605,9.271
		c-5.152,14.422-4.634,14.422-18.54,9.786c-9.172-3.692-18.958-5.615-28.845-5.665c-2.955-0.196-5.922,0.153-8.753,1.031
		c-5.547,1.447-9.638,6.149-10.301,11.845c-0.951,5.588,2.02,11.109,7.21,13.391c6.411,3.262,13.143,5.851,20.087,7.726
		c8.156,2.381,16.084,5.484,23.692,9.271c12.874,6.696,20.599,16.994,20.084,31.931c0.353,14.781-7.88,28.432-21.116,35.022
		C299.395,562.329,289.098,564.458,278.771,563.875z"/>
	<path fill="#FFFFFF" d="M1106.94,495.892c-0.078-7.971,0.789-15.923,2.572-23.692c5.336-24.766,25.828-43.396,50.989-46.352
		c14.683-1.944,29.611-0.716,43.775,3.605c4.124,1.028,6.183,3.089,4.124,7.724c-1.308,4.689-3.21,9.19-5.667,13.393
		c-4.119,4.633-9.271-0.517-13.906-0.517s-12.361-1.543-18.544-1.029c-14.991,0.287-27.901,10.658-31.412,25.236
		c-3.965,12.547-4.143,25.981-0.516,38.627c5.149,19.056,19.57,27.297,40.686,26.783c6.861,0.035,13.668-1.188,20.087-3.607
		c1.936-1.197,4.473-0.599,5.67,1.338c0.236,0.382,0.408,0.801,0.508,1.237c6.696,20.085,9.787,18.025-11.329,22.661
		c-10.845,2.256-21.996,2.605-32.96,1.029c-36.57-4.634-50.472-31.931-53.049-56.139
		C1107.454,502.586,1106.94,498.466,1106.94,495.892z"/>
	<path fill="#FFFFFF" d="M510.535,467.564c0,27.812,0,55.625,0,83.435c0,9.271,0,9.271-9.787,9.788
		c-18.025,0-18.025,0-18.025-16.998c0-52.534,0-105.238,0-158.114c0-2.059,0-4.636,0-6.696c0-2.059,1.543-5.15,5.148-5.15h14.938
		c7.21,0,7.726,0,7.726,7.726c0,25.237,0,50.473,0,75.71C510.535,460.699,510.535,464.133,510.535,467.564z"/>
	<path fill="#FFFFFF" d="M1051.83,437.693c2.577,0,4.12-2.061,5.667-3.606c12.873-8.755,26.779-9.269,41.199-5.664
		c3.607,1.031,4.121,2.576,3.092,5.664l-1.029,2.577c-1.211,4.719-3.12,9.234-5.667,13.389c-3.605,4.122-9.268,1.031-13.905,1.031
		c-15.159-0.039-27.76,11.663-28.841,26.781c-0.98,7.17-1.499,14.396-1.544,21.632c0,16.996,0,33.991,0,50.989
		c0,16.994,0,9.27-9.787,9.27h-11.848c-4.634,0.514-6.691-2.06-6.178-6.696c0.515-4.636,0-4.121,0-5.666
		c0-36.053,0-71.933,0-107.641c0-2.576,0-5.15,0-7.726c0-2.275,1.846-4.12,4.119-4.12l0,0h18.541c2.575,0,4.12,1.546,4.12,4.12
		C1049.77,434.604,1049.77,436.148,1051.83,437.693z"/>
	<path fill="#139CD8" d="M428.127,518.555c0,4.119,0,7.724,0,11.844s0,8.241-7.724,9.272c-10.026,1.898-20.301,2.073-30.388,0.514
		c-12.874-2.576-19.054-10.815-16.993-24.207c1.203-8.364,7.644-15.012,15.963-16.48c8.223-2.204,16.806-2.73,25.237-1.545
		c13.391,1.545,13.904,1.545,13.904,15.451C428.127,515.12,428.127,516.836,428.127,518.555z"/>
	<path fill="#139CD8" d="M1277.927,480.441h-24.721c-3.605,0-4.635-1.544-4.119-4.636c4.635-20.602,16.996-28.326,32.445-27.295
		c14.26,1.019,25.525,12.504,26.27,26.781c0,4.119-1.033,5.15-5.153,5.15H1277.927z"/>
	<path fill="#139CD8" d="M594.484,480.441h-23.692c-4.119,0-6.181-1.031-5.151-5.665c3.605-14.937,12.361-26.783,31.416-26.266
		c14.664,0.511,26.508,12.133,27.298,26.781c0,3.605-0.516,5.664-4.634,5.15H593.97H594.484z"/>
	<path fill="#139CD8" d="M972,495.892c-0.007,9.34-1.753,18.595-5.148,27.297c-4.324,11.388-15.673,18.533-27.813,17.51
		c-13.391,0-22.663-5.664-27.297-18.025c-6.76-17.925-6.76-37.699,0-55.623c3.945-11.513,15.158-18.918,27.297-18.026
		c12.275-0.951,23.666,6.435,27.813,18.026C970.393,476.246,972.14,486.037,972,495.892z"/>
</g>
</svg>
